<svg fill="none" height="32" viewBox="0 0 32 32" width="32" xmlns="http://www.w3.org/2000/svg"><path d="m0 3.5c0-1.932 1.568-3.5 3.5-3.5h25c1.932 0 3.5 1.568 3.5 3.5v25c0 .9283-.3687 1.8185-1.0251 2.4749s-1.5466 1.0251-2.4749 1.0251h-25c-.92826 0-1.8185-.3687-2.47487-1.0251-.656381-.6564-1.02513-1.5466-1.02513-2.4749zm13 9.5v16h15.5c.1326 0 .2598-.0527.3536-.1464.0937-.0938.1464-.221.1464-.3536v-15.5zm16-3v-6.5c0-.13261-.0527-.25979-.1464-.35355-.0938-.09377-.221-.14645-.3536-.14645h-15.5v7zm-26 3v15.5c0 .276.224.5.5.5h6.5v-16zm7-3v-7h-6.5c-.13261 0-.25979.05268-.35355.14645-.09377.09376-.14645.22094-.14645.35355v6.5z" fill="#fff"/></svg>